<svg xmlns="http://www.w3.org/2000/svg" viewBox="0 0 117.78 136"><defs><style>.cls-1{fill:#fff;}.cls-2{fill:#0a58a5;}.cls-3{fill:#1a1a1a;}</style></defs><title>Ресурс 3</title><g id="Слой_2" data-name="Слой 2"><g id="Layer_1" data-name="Layer 1"><polygon class="cls-1" points="117.78 102 58.89 136 0 102 0 34 58.89 0 117.78 34 117.78 102"/><path class="cls-2" d="M72.51,51.68h.54a.51.51,0,0,0,.51-.51V44.37a.51.51,0,0,0-.51-.51H65.56l1-13.7a.51.51,0,0,0-.5-.54H51.71a.5.5,0,0,0-.37.16.51.51,0,0,0-.14.38L52,43.86h-7.3a.51.51,0,0,0-.5.51v6.81a.51.51,0,0,0,.5.51h.54a1.08,1.08,0,0,1,0,2.16h-.54a.51.51,0,0,0-.5.5v1.82h0a.52.52,0,0,0,0,.06l4.59,36.71a.51.51,0,0,0,.14.29l.37,1.48a.5.5,0,0,0,.49.38H52l-.81,12.22a.51.51,0,0,0,.5.54H66.06a.51.51,0,0,0,.5-.55l-1-12.21H68a.5.5,0,0,0,.49-.38l.37-1.48a.51.51,0,0,0,.15-.29l4.58-36.71s0,0,0-.06h0V54.35a.51.51,0,0,0-.51-.5h-.54a1.08,1.08,0,0,1,0-2.16Zm-7-21.05-1,13.23h-2.4l2.52-13.23Zm-1.89,0L61.11,43.86H60a.51.51,0,0,0-.51.51v6.81h0v1.31l-1.16,6.1V51.18h0V44.37a.51.51,0,0,0-.51-.51H57L59.6,30.63Zm7.09,23.21H60.48V51.68H70.72a2.09,2.09,0,0,0,0,2.16ZM59.47,57.89V78.49l-1.16,5.68V64ZM47.05,51.68H57.3v2.16H47.05a2.09,2.09,0,0,0,0-2.16Zm7.2-21.05L52.79,39.8l-.55-9.17Zm1,0h3.3L56,43.86H53.17Zm-10,20h0v-5.8H57.3v5.8Zm0,4.18H57.3v.81H45.23Zm4.52,37.52L45.3,56.67h12v35.7Zm.45,1.72-.15-.61H57.3v.61Zm2,12.76L53,95.1h3l-2.4,11.75Zm2.46,0L57.1,95.1h.7a.51.51,0,0,0,.51-.51V93s0,0,0-.05,0,0,0-.05V89.22l1.16-5.69v9.34a.44.44,0,0,0,0,.05.45.45,0,0,0,0,.05v1.62a.51.51,0,0,0,.51.51h.44l-2.3,11.75Zm9.4,0,1-5,.43,5Zm.68-8.73-1.71,8.73H59.15l2.3-11.75h3.08Zm2.79-4H60.48v-.61h7.24ZM68,92.37H60.48V56.67h12Zm4.49-37.52h0v.81H60.48v-.81Zm-12-4.18v-5.8H72.55v5.8H60.48Z"/><path class="cls-3" d="M18.34,60H25.5V72.59L35.6,60h6.75V82.38H35.19V69.78L25.09,82.38H18.34Z"/><path class="cls-3" d="M55.59,65.43H47.76V60H70.65v5.43H62.82V82.38H55.59Z"/><path class="cls-3" d="M76.06,60H99.44V82.38H92.2V65.43H83.29V82.38H76.06Z"/><path class="cls-2" d="M58.89,130.37l-54-31.18V36.82l54-31.18,54,31.18V99.18Zm-52.51-32,52.51,30.32L111.4,98.32V37.68L58.89,7.37,6.38,37.68Z"/></g></g></svg>