<svg xmlns="http://www.w3.org/2000/svg" viewBox="0 0 81.09 78.23"><defs><style>.cls-1{fill:#0a58a5;}.cls-2{fill:#1a1a1a;}</style></defs><title>Ресурс 2</title><g id="Слой_2" data-name="Слой 2"><g id="Layer_1" data-name="Layer 1"><path class="cls-1" d="M54.17,22.06h.54a.51.51,0,0,0,.51-.51V14.75a.51.51,0,0,0-.51-.51H47.22l1-13.7a.51.51,0,0,0-.5-.54H33.36A.5.5,0,0,0,33,.16a.51.51,0,0,0-.14.38l.82,13.71h-7.3a.51.51,0,0,0-.5.51v6.81a.51.51,0,0,0,.5.51h.54a1.08,1.08,0,0,1,0,2.16h-.54a.51.51,0,0,0-.5.5v1.82h0a.52.52,0,0,0,0,.06l4.59,36.71a.51.51,0,0,0,.14.29L31,65.09a.5.5,0,0,0,.49.38h2.2l-.81,12.22a.51.51,0,0,0,.5.54H47.72a.51.51,0,0,0,.5-.55l-1-12.21h2.42a.5.5,0,0,0,.49-.38l.37-1.48a.51.51,0,0,0,.14-.29l4.58-36.71s0,0,0-.06h0V24.72a.51.51,0,0,0-.51-.5h-.54a1.08,1.08,0,0,1,0-2.16ZM47.18,1l-1,13.23H43.8L46.32,1ZM45.29,1,42.77,14.24H41.63a.51.51,0,0,0-.51.51v6.81h0v1.31L40,29V21.56h0V14.75a.51.51,0,0,0-.51-.51h-.78L41.26,1Zm7.09,23.21H42.14V22.06H52.38a2.09,2.09,0,0,0,0,2.16ZM41.13,28.27V48.86L40,54.55V34.37ZM28.71,22.06H39v2.16H28.71a2.09,2.09,0,0,0,0-2.16ZM35.91,1l-1.46,9.17L33.9,1Zm1,0h3.3L37.65,14.24H34.83Zm-10,20h0v-5.8H39V21Zm0,4.18H39V26H26.89Zm4.52,37.52L27,27H39v35.7Zm.45,1.72-.15-.61H39v.61Zm2,12.76.78-11.75h3l-2.4,11.75Zm2.46,0,2.4-11.75h.7A.51.51,0,0,0,40,65V63.35s0,0,0-.05,0,0,0-.05V59.59l1.16-5.69v9.34a.44.44,0,0,0,0,.05.45.45,0,0,0,0,.05V65a.51.51,0,0,0,.51.51h.44l-2.3,11.75Zm9.4,0,1-5,.43,5Zm.68-8.73-1.71,8.73H40.81l2.3-11.75h3.08Zm2.79-4H42.14v-.61h7.24Zm.45-1.72H42.14V27h12Zm4.49-37.52h0V26H42.14v-.81ZM42.14,21v-5.8H54.21V21H42.14Z"/><path class="cls-2" d="M0,30.38H7.16V43l10.1-12.59H24V52.75H16.85V40.16L6.75,52.75H0Z"/><path class="cls-2" d="M37.25,35.81H29.42V30.38H52.31v5.43H44.48V52.75H37.25Z"/><path class="cls-2" d="M57.72,30.38H81.09V52.75H73.86V35.81H64.95V52.75H57.72Z"/></g></g></svg>